<?xml version="1.0" encoding="UTF-8" standalone="no"?>
<svg
   xmlns:dc="http://purl.org/dc/elements/1.1/"
   xmlns:cc="http://creativecommons.org/ns#"
   xmlns:rdf="http://www.w3.org/1999/02/22-rdf-syntax-ns#"
   xmlns:svg="http://www.w3.org/2000/svg"
   xmlns="http://www.w3.org/2000/svg"
   viewBox="0 0 621.1333 429.67999"
   height="429.67999"
   width="621.1333"
   xml:space="preserve"
   id="svg2"
   version="1.1"><metadata
     id="metadata8"><rdf:RDF><cc:Work
         rdf:about=""><dc:format>image/svg+xml</dc:format><dc:type
           rdf:resource="http://purl.org/dc/dcmitype/StillImage" /></cc:Work></rdf:RDF></metadata><defs
     id="defs6" /><g
     transform="matrix(1.3333333,0,0,-1.3333333,0,429.68)"
     id="g10"><g
       transform="scale(0.1)"
       id="g12"><path
         id="path14"
         style="fill:#040606;fill-opacity:1;fill-rule:nonzero;stroke:none"
         d="m 402.715,414.91 c -49.227,0 -88.043,16.211 -115.399,48.192 -27.5,32.128 -41.449,79.058 -41.449,139.457 v 114.402 c 0,60.398 13.949,107.32 41.449,139.469 27.352,31.968 66.172,48.179 115.399,48.179 49.223,0 88.047,-16.211 115.402,-48.179 27.5,-32.168 41.453,-79.102 41.453,-139.469 V 602.559 C 559.57,542.18 545.617,495.262 518.117,463.102 490.758,431.121 451.934,414.91 402.715,414.91 Z m 248.121,543.781 c -29.586,33.637 -65.957,59.329 -108.117,76.339 -42.063,16.98 -89.168,25.58 -140.004,25.58 -50.836,0 -97.938,-8.6 -139.996,-25.58 C 220.531,1018 184.16,992.309 154.602,958.691 125.055,925.07 101.852,882.809 85.6523,833.07 69.4727,783.461 61.2695,725.148 61.2695,659.762 c 0,-65.383 8.2032,-123.703 24.3828,-173.313 16.2067,-49.769 39.4107,-92.027 68.9497,-125.609 29.55,-33.649 65.929,-59.34 108.117,-76.36 42.058,-16.96 89.16,-25.558 139.996,-25.558 50.84,0 97.941,8.598 140.004,25.558 42.16,17 78.535,42.7 108.117,76.36 29.519,33.582 52.723,75.84 68.949,125.609 16.18,49.672 24.383,107.981 24.383,173.313 0,65.328 -8.203,123.636 -24.383,173.308 -16.219,49.739 -39.422,92 -68.949,125.621" /><path
         id="path16"
         style="fill:#040606;fill-opacity:1;fill-rule:nonzero;stroke:none"
         d="M 1227.86,614.66 V 514.559 c 0,-35.528 -9.84,-64.09 -29.24,-84.887 -19.34,-20.742 -44.14,-31.262 -73.71,-31.262 -29.84,0 -54.81,7.328 -74.21,21.809 -19.34,14.39 -28.74,33.742 -28.74,59.14 v 170.5 c 0,25.379 9.4,44.731 28.74,59.141 19.42,14.48 44.39,21.809 74.21,21.809 29.55,0 54.35,-10.52 73.7,-31.258 19.41,-20.821 29.25,-49.379 29.25,-84.891 z m -49.05,255.649 c -38.01,0 -72.23,-10.59 -101.72,-31.489 -27.52,-19.5 -46.03,-44.55 -55.13,-74.511 v 92.8 H 851.66 V 52.1094 h 170.3 V 365.641 c 4.54,-13.59 11.11,-26.551 19.58,-38.582 9.68,-13.821 21.64,-25.957 35.5,-36.079 13.82,-10.082 29.54,-18.039 46.71,-23.64 17.16,-5.59 35.69,-8.418 55.06,-8.418 74.26,0 131.16,26.609 169.14,79.098 37.7,52.101 56.81,128.519 56.81,227.14 0,98.61 -19.11,174.852 -56.82,226.61 -37.98,52.121 -94.88,78.539 -169.13,78.539" /><path
         id="path18"
         style="fill:#040606;fill-opacity:1;fill-rule:nonzero;stroke:none"
         d="m 1664.04,627.859 c 0,34.84 9.13,63.071 27.14,83.903 17.88,20.668 43.01,31.148 74.71,31.148 31.56,0 55.15,-10.398 70.12,-30.91 15.22,-20.891 22.93,-48.828 22.93,-83.039 v -6.152 h -194.9 z m 307.73,151.942 c -21.9,27.461 -50.48,49.64 -84.92,65.949 -34.47,16.301 -76.28,24.559 -124.26,24.559 -43.59,0 -82.94,-7.321 -116.96,-21.75 -34.1,-14.45 -63.24,-35.321 -86.61,-62.028 -23.33,-26.672 -41.17,-59.133 -53.01,-96.492 -11.79,-37.211 -17.77,-79.23 -17.77,-124.879 0,-46.371 6.17,-88.949 18.34,-126.558 12.21,-37.762 30.62,-70.243 54.69,-96.524 24.08,-26.316 53.95,-46.976 88.78,-61.437 34.76,-14.422 74.85,-21.719 119.14,-21.719 53.04,0 101.07,8.617 142.78,25.637 41.78,17.062 76.13,41.16 102.08,71.632 l 2.01,2.36 -86,107.199 -2.96,-3.039 c -18.06,-18.621 -37.81,-34.77 -58.72,-48 -20.56,-13.012 -47.64,-19.602 -80.49,-19.602 -42.73,0 -74.37,10.789 -94.05,32.071 -19.77,21.359 -29.8,50.769 -29.8,87.449 v 4.98 h 370.71 v 52.153 c 0,39.008 -5.05,76.918 -15,112.648 -9.99,35.879 -26.13,67.969 -47.98,95.391" /><path
         id="path20"
         style="fill:#040606;fill-opacity:1;fill-rule:nonzero;stroke:none"
         d="m 2460.58,870.309 c -46.17,0 -82.9,-11.411 -109.14,-33.899 -25.34,-21.73 -43.54,-47.691 -54.11,-77.199 l -0.19,97.898 h -170.31 v -585 h 170.31 v 377.75 c 0,13.25 2.8,25.032 8.33,35.039 5.57,10.102 13.18,18.762 22.6,25.743 9.5,7.031 20.36,12.187 32.28,15.347 12.08,3.203 24.71,4.821 37.54,4.821 28.56,0 48.6,-8.5 59.55,-25.25 11.27,-17.289 16.99,-44.539 16.99,-81 v -352.45 h 170.31 v 365.653 c 0,73.816 -15.62,131.59 -46.43,171.679 -31.04,40.387 -77.38,60.868 -137.73,60.868" /><path
         id="path22"
         style="fill:#040606;fill-opacity:1;fill-rule:nonzero;stroke:none"
         d="m 2775.63,906.809 h 99.01 V 412.711 h -99.01 V 272.109 h 372.7 v 140.602 h -98.99 v 494.098 h 98.99 v 140.601 h -372.7 V 906.809" /><path
         id="path24"
         style="fill:#040606;fill-opacity:1;fill-rule:nonzero;stroke:none"
         d="m 3469.33,894.711 h 172.24 c 23.85,0 42.81,-6.152 56.34,-18.289 13.41,-12.031 20.21,-30.152 20.21,-53.863 V 774.16 c 0,-23.719 -6.8,-41.84 -20.21,-53.859 -13.51,-12.141 -32.47,-18.289 -56.34,-18.289 h -172.24 z m 364.71,83.328 c -20.46,21.551 -45.49,38.691 -74.41,50.931 -28.93,12.23 -61.99,18.44 -98.26,18.44 H 3294.62 V 272.109 h 174.71 v 277.2 h 192.04 c 36.27,0 69.33,6.211 98.26,18.441 28.95,12.262 53.98,29.391 74.41,50.93 20.43,21.539 36.43,47.879 47.56,78.289 11.09,30.34 16.72,64.453 16.72,101.39 0,36.2 -5.63,70.121 -16.72,100.832 -11.13,30.758 -27.13,57.289 -47.56,78.848" /><path
         id="path26"
         style="fill:#040606;fill-opacity:1;fill-rule:nonzero;stroke:none"
         d="m 4465.2,531.039 -1.55,-4.168 c -11.47,-30.82 -29.46,-57.531 -53.46,-79.391 -23.74,-21.609 -56.02,-32.57 -95.92,-32.57 -47.83,0 -86.69,15.699 -115.51,46.649 -28.9,31.043 -43.55,77 -43.55,136.601 v 123.199 c 0,59.602 14.65,105.551 43.55,136.59 28.82,30.961 67.68,46.66 115.51,46.66 40.63,0 71.79,-9.48 92.63,-28.187 21.02,-18.891 36.76,-44.434 46.79,-75.902 l 1.35,-4.239 151.19,78.481 -1.44,3.226 c -28.07,62.731 -65.93,109.364 -112.54,138.592 -46.6,29.22 -106.48,44.03 -177.98,44.03 -52.33,0 -100.19,-8.98 -142.26,-26.69 -42.17,-17.76 -78.54,-44.19 -108.09,-78.561 -29.53,-34.32 -52.72,-77.32 -68.93,-127.8 -16.17,-50.348 -24.38,-108.649 -24.38,-173.297 0,-65.403 8.21,-123.34 24.39,-172.231 16.21,-49.043 39.42,-90.57 68.97,-123.429 29.56,-32.903 65.93,-58.024 108.12,-74.672 42.04,-16.61 89.87,-25.008 142.18,-25.008 71.56,0 131.67,16.308 178.66,48.488 46.9,32.141 85.26,78.328 114,137.309 l 1.53,3.133 -143.26,83.187" /><path
         id="path28"
         style="fill:#040606;fill-opacity:1;fill-rule:nonzero;stroke:none"
         d="m 2041.8,2855.77 -117.17,136.64 59.82,51.29 c 195.35,167.49 478.93,167.51 674.3,0.03 l 59.02,-50.6 -117.16,-136.66 -59.01,50.6 c -127.48,109.29 -312.52,109.27 -439.98,-0.02 l -59.82,-51.28" /><path
         id="path30"
         style="fill:#040606;fill-opacity:1;fill-rule:nonzero;stroke:none"
         d="m 1924.49,1724.44 -617.01,529.01 616.84,528.86 117.16,-136.65 -457.46,-392.21 457.63,-392.36 -117.16,-136.65" /><path
         id="path32"
         style="fill:#040606;fill-opacity:1;fill-rule:nonzero;stroke:none"
         d="m 2321.61,1337.57 c -119.75,0 -239.47,41.88 -337.16,125.64 l -59.74,51.21 117.16,136.65 59.75,-51.22 c 127.46,-109.28 312.5,-109.29 439.98,-0.01 l 58.8,50.41 117.16,-136.66 -58.81,-50.41 c -97.67,-83.73 -217.42,-125.61 -337.14,-125.61" /><path
         id="path34"
         style="fill:#040606;fill-opacity:1;fill-rule:nonzero;stroke:none"
         d="m 2717.96,1723.77 -117.15,136.66 458.46,393.02 -458.25,392.85 117.15,136.66 617.66,-529.51 -617.87,-529.68" /><path
         id="path36"
         style="fill:#040606;fill-opacity:1;fill-rule:nonzero;stroke:none"
         d="m 2645.93,2253.45 c 0,-179.09 -145.18,-324.27 -324.28,-324.27 -179.09,0 -324.28,145.18 -324.28,324.27 0,179.09 145.19,324.28 324.28,324.28 179.1,0 324.28,-145.19 324.28,-324.28" /></g></g></svg>