<?xml version="1.0" encoding="UTF-8" standalone="no"?>
<svg
   xmlns:dc="http://purl.org/dc/elements/1.1/"
   xmlns:cc="http://creativecommons.org/ns#"
   xmlns:rdf="http://www.w3.org/1999/02/22-rdf-syntax-ns#"
   xmlns:svg="http://www.w3.org/2000/svg"
   xmlns="http://www.w3.org/2000/svg"
   viewBox="0 0 295.84 269.64001"
   height="269.64001"
   width="295.84"
   xml:space="preserve"
   id="svg2"
   version="1.1"><metadata
     id="metadata8"><rdf:RDF><cc:Work
         rdf:about=""><dc:format>image/svg+xml</dc:format><dc:type
           rdf:resource="http://purl.org/dc/dcmitype/StillImage" /></cc:Work></rdf:RDF></metadata><defs
     id="defs6" /><g
     transform="matrix(1.3333333,0,0,-1.3333333,0,269.64)"
     id="g10"><g
       transform="scale(0.1)"
       id="g12"><path
         id="path14"
         style="fill:#ffffff;fill-opacity:1;fill-rule:nonzero;stroke:none"
         d="m 815.938,1647.28 -117.168,136.64 62.714,53.78 c 203.176,174.19 498.126,174.2 701.316,0.03 l 61.88,-53.05 -117.15,-136.66 -61.88,53.05 c -135.31,116 -331.7,115.97 -466.998,-0.01 l -62.714,-53.78" /><path
         id="path16"
         style="fill:#ffffff;fill-opacity:1;fill-rule:nonzero;stroke:none"
         d="M 698.613,461.109 55.5586,1012.46 698.438,1563.65 815.598,1426.99 332.102,1012.46 815.781,597.75 698.613,461.109" /><path
         id="path18"
         style="fill:#ffffff;fill-opacity:1;fill-rule:nonzero;stroke:none"
         d="m 1112.16,56.5391 c -124.551,0 -249.062,43.5389 -350.676,130.6599 l -62.625,53.699 117.157,136.661 62.636,-53.707 C 1013.95,207.84 1210.34,207.84 1345.65,323.828 l 61.66,52.871 117.15,-136.66 -61.66,-52.867 C 1361.22,100.09 1236.68,56.5391 1112.16,56.5391" /><path
         id="path20"
         style="fill:#ffffff;fill-opacity:1;fill-rule:nonzero;stroke:none"
         d="m 1524.88,460.398 -117.14,136.661 484.55,415.401 -484.34,415.2 117.15,136.66 643.75,-551.86 -643.97,-552.062" /><path
         id="path22"
         style="fill:#ffffff;fill-opacity:1;fill-rule:nonzero;stroke:none"
         d="m 1452.2,1012.45 c 0,-187.77 -152.23,-340.001 -340,-340.001 -187.774,0 -340.001,152.231 -340.001,340.001 0,187.78 152.227,340 340.001,340 187.77,0 340,-152.22 340,-340" /></g></g></svg>